<svg width="20" height="18" viewBox="0 0 20 18" fill="none" xmlns="http://www.w3.org/2000/svg">
<g id="file-circle-plus-solid 1" clip-path="url(#clip0_1943_2634)">
<path id="Vector" d="M0 2.22222C0 0.994792 0.994792 0 2.22222 0H7.77778V4.44444C7.77778 5.05903 8.27431 5.55556 8.88889 5.55556H13.3333V6.89583C10.7674 7.62153 8.88889 9.97917 8.88889 12.7778C8.88889 14.8299 9.89931 16.6424 11.4479 17.7535C11.3403 17.7674 11.2257 17.7778 11.1111 17.7778H2.22222C0.994792 17.7778 0 16.7812 0 15.5556V2.22222ZM8.88889 4.44444V0L13.3333 4.44444H8.88889ZM10 12.7778C10 10.0174 12.2396 7.77778 15 7.77778C17.7604 7.77778 20 10.0174 20 12.7778C20 15.5382 17.7604 17.7778 15 17.7778C12.2396 17.7778 10 15.5382 10 12.7778ZM15.5556 10.5243C15.5556 10.25 15.3056 9.96875 15 9.96875C14.6944 9.96875 14.4444 10.25 14.4444 10.5243V12.191H12.7778C12.4722 12.191 12.2222 12.4722 12.2222 12.7465C12.2222 13.0833 12.4722 13.3021 12.7778 13.3021H14.4444V14.9688C14.4444 15.3056 14.6944 15.5243 15 15.5243C15.3056 15.5243 15.5556 15.3056 15.5556 14.9688V13.3021H17.2222C17.5278 13.3021 17.7778 13.0833 17.7778 12.7465C17.7778 12.4722 17.5278 12.191 17.2222 12.191H15.5556V10.5243Z" fill="#003E69"/>
</g>
<defs>
<clipPath id="clip0_1943_2634">
<rect width="20" height="17.7778" fill="white"/>
</clipPath>
</defs>
</svg>
