<svg width="18" height="16" viewBox="0 0 18 16" fill="none" xmlns="http://www.w3.org/2000/svg">
<g id="list-check-solid 1">
<path id="Vector" d="M5.75322 1.19375C6.0626 1.47188 6.0876 1.94375 5.80947 2.25313L3.55947 4.75313C3.42197 4.90625 3.22822 4.99688 3.02197 5C2.81572 5.00313 2.61885 4.925 2.47197 4.78125L1.21885 3.53125C0.925098 3.2375 0.925098 2.7625 1.21885 2.47188C1.5126 2.18125 1.9876 2.17813 2.27822 2.47188L2.96885 3.1625L4.69072 1.25C4.96885 0.940626 5.44072 0.915626 5.7501 1.19375H5.75322ZM5.75322 6.19375C6.0626 6.47188 6.0876 6.94375 5.80947 7.25313L3.55947 9.75313C3.42197 9.90625 3.22822 9.99688 3.02197 10C2.81572 10.0031 2.61885 9.925 2.47197 9.78125L1.21885 8.53125C0.925098 8.2375 0.925098 7.7625 1.21885 7.47188C1.5126 7.18125 1.9876 7.17813 2.27822 7.47188L2.96885 8.1625L4.69072 6.25C4.96885 5.94063 5.44072 5.91563 5.7501 6.19375H5.75322ZM8.0001 3C8.0001 2.44688 8.44697 2 9.0001 2H16.0001C16.5532 2 17.0001 2.44688 17.0001 3C17.0001 3.55313 16.5532 4 16.0001 4H9.0001C8.44697 4 8.0001 3.55313 8.0001 3ZM8.0001 8C8.0001 7.44688 8.44697 7 9.0001 7H16.0001C16.5532 7 17.0001 7.44688 17.0001 8C17.0001 8.55313 16.5532 9 16.0001 9H9.0001C8.44697 9 8.0001 8.55313 8.0001 8ZM6.0001 13C6.0001 12.4469 6.44697 12 7.0001 12H16.0001C16.5532 12 17.0001 12.4469 17.0001 13C17.0001 13.5531 16.5532 14 16.0001 14H7.0001C6.44697 14 6.0001 13.5531 6.0001 13ZM2.5001 14.5C1.67197 14.5 1.0001 13.8281 1.0001 13C1.0001 12.1719 1.67197 11.5 2.5001 11.5C3.32822 11.5 4.0001 12.1719 4.0001 13C4.0001 13.8281 3.32822 14.5 2.5001 14.5Z" fill="#A0A0A0"/>
</g>
</svg>
