<svg width="18" height="18" viewBox="0 0 18 18" fill="none" xmlns="http://www.w3.org/2000/svg">
<g id="right-from-bracket-solid 1">
<path id="Vector" d="M3.375 16.875H5.625C6.24727 16.875 6.75 16.3723 6.75 15.75C6.75 15.1277 6.24727 14.625 5.625 14.625H3.375C2.75379 14.625 2.25 14.1212 2.25 13.5V4.5C2.25 3.87879 2.75379 3.375 3.375 3.375H5.625C6.24727 3.375 6.75 2.87121 6.75 2.25C6.75 1.62879 6.24727 1.125 5.625 1.125H3.375C1.51102 1.125 0 2.63602 0 4.5V13.5C0 15.3633 1.51102 16.875 3.375 16.875ZM17.7469 8.38477L12.6809 3.60352C12.4356 3.37226 12.0762 3.30908 11.7668 3.44201C11.4573 3.5755 11.2567 3.88041 11.2567 4.2172L11.2535 6.74845L6.75345 6.74842C6.13154 6.74842 5.62775 7.25221 5.62775 7.87342V10.1234C5.62775 10.7446 6.13189 11.2484 6.75345 11.2484L11.2535 11.2485L11.2567 13.7481C11.2567 14.0848 11.4573 14.3897 11.7668 14.5233C12.0763 14.6562 12.4358 14.593 12.6809 14.3617L17.7469 9.5805C18.0844 9.29531 18.0844 8.70469 17.7469 8.38477Z" fill="#003E69"/>
</g>
</svg>
