<svg width="16" height="16" viewBox="0 0 16 16" fill="none" xmlns="http://www.w3.org/2000/svg">
<g id="screwdriver-wrench-solid 1" clip-path="url(#clip0_1943_2470)">
<path id="Vector" d="M10.3687 7.00311C11.2528 7.00311 12.0837 7.34655 12.7081 7.97092L13.3203 8.58311C14.5706 8.02874 15.5469 6.91749 15.8709 5.5628C16.0498 4.8153 16.0378 4.09155 15.8777 3.4253C15.796 3.0853 15.3642 2.97186 15.117 3.21892L12.9639 5.37205H10.6014V3.03749L12.7545 0.884362C13.0018 0.637112 12.8881 0.205299 12.5482 0.123737C11.8819 -0.0364196 11.1582 -0.0484509 10.4107 0.130449C8.68253 0.543887 7.33596 2.01232 7.06065 3.76795C7.01562 4.02811 7.00625 4.28124 7.00938 4.53124L9.59625 7.12061C9.85 7.03436 10.1094 7.00311 10.3687 7.00311ZM12 8.70624C11.2762 7.98249 10.2009 7.84467 9.33156 8.27186L5.97188 4.93749V2.99967L2 -1.337e-05L0 1.97186L3 5.94374L4.93875 5.94398L8.27312 9.27523C7.84594 10.1446 7.98403 11.2199 8.70781 11.9437L12.3641 15.603C12.8209 16.0562 13.5581 16.0562 14.0112 15.603L15.6597 13.9546C16.1128 13.5014 16.1128 12.7646 15.6596 12.3074L12 8.70624ZM7.12187 9.59374L5.27187 7.74686L0.61875 12.4C-0.205313 13.224 -0.205313 14.5587 0.61875 15.3828C1.03 15.7937 1.56906 16 2.10938 16C2.64969 16 3.18875 15.794 3.60063 15.3819L7.3225 11.66C7.04688 11.0094 6.95625 10.2937 7.12187 9.59374ZM2 14.75C1.58594 14.75 1.25 14.414 1.25 14C1.25 13.5856 1.58594 13.25 2 13.25C2.41406 13.25 2.75 13.5844 2.75 14C2.75 14.4156 2.41406 14.75 2 14.75Z" fill="#003E69"/>
</g>
<defs>
<clipPath id="clip0_1943_2470">
<rect width="16" height="16" fill="white"/>
</clipPath>
</defs>
</svg>
