<svg width="24" height="24" viewBox="0 0 24 24" fill="none" xmlns="http://www.w3.org/2000/svg">
<path id="Vector" d="M12 0C5.37188 0 0 5.37188 0 12C0 18.6281 5.37188 24 12 24C18.6281 24 24 18.6281 24 12C24 5.37188 18.6281 0 12 0ZM18.3094 11.5594L13.0594 16.8094C12.7688 17.1047 12.3844 17.25 12 17.25C11.6156 17.25 11.2322 17.1035 10.9397 16.8105L5.68969 11.5605C5.10375 10.9746 5.10375 10.0254 5.68969 9.43945C6.27562 8.85352 7.22484 8.85352 7.81078 9.43945L12 13.6312L16.1897 9.44156C16.7756 8.85563 17.7248 8.85563 18.3108 9.44156C18.8967 10.0275 18.8953 10.9734 18.3094 11.5594Z" fill="#586C79"/>
</svg>
